<svg width="100" height="50" xmlns="http://www.w3.org/2000/svg" viewBox="0 0 450.92 124.18"><defs><style>.a{fill:#f4f4f4;}</style></defs><path class="a" d="M83.93,124.15H56.12L11.42,59.43H37.74a31,31,0,0,0,8.52-1.16,20.43,20.43,0,0,0,7-3.48A16.46,16.46,0,0,0,58,48.91a19.23,19.23,0,0,0,1.74-8.52A18.18,18.18,0,0,0,57.9,32,17,17,0,0,0,53,26.15a21.37,21.37,0,0,0-7-3.48,29.36,29.36,0,0,0-8.28-1.16H0V.17H37.91a79.64,79.64,0,0,1,16,1.57,34.45,34.45,0,0,1,14.32,6.7A38,38,0,0,1,82.8,38.57a45.26,45.26,0,0,1-3.06,16.06A35.58,35.58,0,0,1,70.88,68.2a33,33,0,0,1-9.52,6.7,64.18,64.18,0,0,1-11,3.56Z" transform="translate(0 0.03)"/><path class="a" d="M156.26,124.15a61.13,61.13,0,0,1-24.09-4.8,63.44,63.44,0,0,1-19.86-13.16A62.56,62.56,0,0,1,98.82,86.57a59.15,59.15,0,0,1-5-24.17A61,61,0,0,1,98.7,38a62.1,62.1,0,0,1,13.45-19.72A63.71,63.71,0,0,1,132,4.93a62.57,62.57,0,0,1,68.45,13.33A64,64,0,0,1,213.87,38a60.15,60.15,0,0,1,5,24.42,59.15,59.15,0,0,1-5,24.17,62.68,62.68,0,0,1-13.49,19.62,63.3,63.3,0,0,1-19.83,13.1A61.56,61.56,0,0,1,156.26,124.15Zm0-103.29a38.08,38.08,0,0,0-15.81,3.31,41.35,41.35,0,0,0-12.83,8.94,40.63,40.63,0,0,0-8.52,13.15,42.16,42.16,0,0,0-3.06,16A40.1,40.1,0,0,0,119.19,78a42.83,42.83,0,0,0,8.53,13.08A40.29,40.29,0,0,0,140.47,100a39.36,39.36,0,0,0,31.62,0,40.29,40.29,0,0,0,12.75-8.94A42.83,42.83,0,0,0,193.37,78a40.07,40.07,0,0,0,3.12-15.73,42.16,42.16,0,0,0-3.06-16A41.45,41.45,0,0,0,185,33.1a40.29,40.29,0,0,0-12.75-8.94A38.56,38.56,0,0,0,156.26,20.86Z" transform="translate(0 0.03)"/><path class="a" d="M309.88,0H331.4V124.15H270V124a48.86,48.86,0,0,1-20.53-4.55,43.9,43.9,0,0,1-8.94-5.55,41.75,41.75,0,0,1-7.28-7.45A35.22,35.22,0,0,1,227,92a83,83,0,0,1-1.57-15.64V0h23V76.31a49,49,0,0,0,1,10.18,23.15,23.15,0,0,0,3.48,8.36,17.13,17.13,0,0,0,6.61,5.71A23.13,23.13,0,0,0,270,102.63h39.07a1.56,1.56,0,0,0,.41-.83,1.49,1.49,0,0,1,.41-.83V0Z" transform="translate(0 0.03)"/><path class="a" d="M338.19,0h22.68V124.15H338.19Z" transform="translate(0 0.03)"/><path class="a" d="M413.55,23.59A37,37,0,0,0,401,32.2a39.55,39.55,0,0,0-8.28,13.24,46.1,46.1,0,0,0-3,16.8,45.21,45.21,0,0,0,3,17,38.33,38.33,0,0,0,8.44,13,37.34,37.34,0,0,0,12.5,8.28,39.93,39.93,0,0,0,15.23,2.9h22v20.69h-22a67.93,67.93,0,0,1-23-4.3,58,58,0,0,1-19.53-12A58.69,58.69,0,0,1,372.8,88.46q-5.13-11.5-5.13-26.73a63.81,63.81,0,0,1,5-25.91,57.51,57.51,0,0,1,13.66-19.45A60.49,60.49,0,0,1,406.06,4.26,64.88,64.88,0,0,1,429.4,0h21.52V20.57H429.55A41,41,0,0,0,413.55,23.59Z" transform="translate(0 0.03)"/></svg>